<svg width="59" height="60" viewBox="0 0 59 60" fill="none" xmlns="http://www.w3.org/2000/svg">
<g clip-path="url(#clip0_69_239)">
<path d="M0.592529 21.9354C0.592529 14.5377 0.592529 10.8388 2.03223 8.01319C3.29863 5.52774 5.31937 3.50701 7.80482 2.24061C10.6304 0.800903 14.3293 0.800903 21.7271 0.800903H37.8561C45.2538 0.800903 48.9527 0.800903 51.7783 2.24061C54.2638 3.50701 56.2845 5.52774 57.5509 8.01319C58.9906 10.8388 58.9906 14.5377 58.9906 21.9354V38.0644C58.9906 45.4622 58.9906 49.1611 57.5509 51.9867C56.2845 54.4721 54.2638 56.4929 51.7783 57.7593C48.9527 59.199 45.2539 59.199 37.8561 59.199H21.7271C14.3293 59.199 10.6304 59.199 7.80482 57.7593C5.31937 56.4929 3.29863 54.4721 2.03223 51.9867C0.592529 49.1611 0.592529 45.4622 0.592529 38.0644V21.9354Z" fill="#330000"/>
<path d="M28.8916 37.5004H19.8421L18.0009 43.3667C17.9497 43.5847 17.749 43.739 17.5307 43.7283H12.9472C12.6858 43.7283 12.5944 43.581 12.673 43.2864L20.508 20.1427C20.5864 19.9017 20.6648 19.6271 20.7431 19.319C20.8456 18.783 20.8981 18.2381 20.8998 17.6918C20.8774 17.5304 21.0192 17.3879 21.1741 17.4105H27.4029C27.5854 17.4105 27.6898 17.4775 27.7163 17.6114L36.6092 43.3265C36.6875 43.5946 36.6091 43.7285 36.3741 43.7283H31.2812C31.1026 43.7486 30.932 43.6262 30.8895 43.4471L28.8916 37.5004ZM21.2524 32.4378H27.4421C26.4251 28.9627 25.2775 25.5333 24.3473 22.0312C23.3437 25.5393 22.2487 29.0332 21.2524 32.4378Z" fill="#FF9A00"/>
<path d="M41.8973 21.6695C41.4978 21.6859 41.0993 21.6157 40.728 21.4634C40.3567 21.3111 40.021 21.0801 39.7427 20.7855C39.4652 20.4782 39.2496 20.1177 39.1084 19.7246C38.9672 19.3316 38.9032 18.9138 38.9199 18.4953C38.9057 18.0809 38.9768 17.6681 39.1287 17.2838C39.2806 16.8996 39.5098 16.5525 39.8014 16.2653C40.0901 15.981 40.431 15.7583 40.8042 15.61C41.1774 15.4618 41.5755 15.3909 41.9756 15.4014C42.9159 15.4014 43.6537 15.6894 44.1891 16.2653C44.4593 16.5646 44.6694 16.9156 44.8072 17.2982C44.945 17.6809 45.0078 18.0877 44.9921 18.4953C45.0085 18.9154 44.9424 19.3347 44.7977 19.7281C44.653 20.1215 44.4327 20.4811 44.1499 20.7855C43.8543 21.0844 43.5015 21.3172 43.1138 21.4694C42.7262 21.6215 42.312 21.6896 41.8973 21.6695ZM39.1942 43.3264V24.1204C39.1942 23.8794 39.2982 23.7588 39.5076 23.7588H44.3262C44.535 23.7588 44.6394 23.8793 44.6396 24.1204V43.3264C44.6396 43.5945 44.5351 43.7284 44.3262 43.7282H39.5468C39.3118 43.7282 39.1942 43.5943 39.1942 43.3264Z" fill="#FF9A00"/>
</g>
<defs>
<clipPath id="clip0_69_239">
<rect width="58.3981" height="58.3981" fill="white" transform="translate(0.592529 0.800903)"/>
</clipPath>
</defs>
</svg>
