<svg width="60" height="60" viewBox="0 0 60 60" fill="none" xmlns="http://www.w3.org/2000/svg">
<g clip-path="url(#clip0_69_233)">
<path d="M0.796143 21.9354C0.796143 14.5377 0.796143 10.8388 2.23585 8.01319C3.50225 5.52774 5.52298 3.50701 8.00843 2.24061C10.834 0.800903 14.5329 0.800903 21.9307 0.800903H38.0597C45.4575 0.800903 49.1564 0.800903 51.9819 2.24061C54.4674 3.50701 56.4881 5.52774 57.7545 8.01319C59.1942 10.8388 59.1942 14.5377 59.1942 21.9354V38.0644C59.1942 45.4622 59.1942 49.1611 57.7545 51.9867C56.4881 54.4721 54.4674 56.4929 51.9819 57.7593C49.1564 59.199 45.4575 59.199 38.0597 59.199H21.9307C14.5329 59.199 10.834 59.199 8.00843 57.7593C5.52298 56.4929 3.50225 54.4721 2.23585 51.9867C0.796143 49.1611 0.796143 45.4622 0.796143 38.0644V21.9354Z" fill="#00005B"/>
<path d="M23.354 36.052H14.2739L12.4264 42.1371C12.3751 42.3628 12.1738 42.5226 11.9547 42.5115H7.35571C7.09344 42.5115 7.00172 42.359 7.08055 42.0539L14.9421 18.1916C15.0208 17.9421 15.0993 17.6981 15.178 17.3789C15.2808 16.8239 15.3335 16.2598 15.3352 15.6942C15.3127 15.527 15.4525 15.3791 15.6104 15.4029H21.8603C22.0434 15.4029 22.1482 15.4723 22.1747 15.611L31.0977 42.0955C31.1763 42.373 31.0977 42.5117 30.8618 42.5115H25.7517C25.5725 42.5325 25.4014 42.4057 25.3587 42.2203L23.354 36.052ZM15.6889 30.9211H21.8996C20.8792 27.3233 19.7277 23.7727 18.7943 20.1468C17.7367 23.908 16.7601 27.3962 15.6889 30.9211Z" fill="#9999FF"/>
<path d="M33.5955 42.0598V26.5847C33.5955 26.1135 33.589 25.5866 33.5759 25.004C33.5624 24.4216 33.5427 23.867 33.5169 23.34C33.4905 22.8135 33.4643 22.3975 33.4383 22.092C33.3659 21.8959 33.5374 21.7449 33.7134 21.7592H37.8015C38.5389 21.7336 38.6634 22.869 38.7056 23.4648C39.4656 22.7602 40.3463 22.2165 41.2999 21.8632C42.248 21.5158 43.2447 21.34 44.248 21.3432C45.0293 21.347 45.8052 21.4804 46.5475 21.7384C47.4044 22.0284 48.186 22.525 48.8306 23.1892C49.4752 23.8533 49.9653 24.6668 50.2622 25.5656C50.6552 26.6335 50.8518 28.0132 50.8518 29.7047V42.0598C50.8518 42.3094 50.747 42.4342 50.5373 42.4342H45.781C45.5554 42.4685 45.3555 42.257 45.3879 42.0182V30.2039C45.4113 29.4783 45.2908 28.7556 45.0342 28.0824C44.0036 25.5292 40.6533 26.0896 39.0593 27.6663V42.0598C39.0593 42.3094 38.9545 42.4342 38.7448 42.4342H33.9493C33.7462 42.4649 33.5665 42.2746 33.5955 42.0598Z" fill="#9999FF"/>
</g>
<defs>
<clipPath id="clip0_69_233">
<rect width="58.3981" height="58.3981" fill="white" transform="translate(0.796143 0.800903)"/>
</clipPath>
</defs>
</svg>
