<svg width="59" height="60" viewBox="0 0 59 60" fill="none" xmlns="http://www.w3.org/2000/svg">
<g clip-path="url(#clip0_69_227)">
<path d="M19.542 59.1989C24.9146 59.1989 29.275 54.8385 29.275 49.4659V39.7329H19.542C14.1694 39.7329 9.80896 44.0933 9.80896 49.4659C9.80896 54.8385 14.1694 59.1989 19.542 59.1989Z" fill="#0ACF83"/>
<path d="M9.80896 30C9.80896 24.6274 14.1694 20.267 19.542 20.267H29.275V39.733H19.542C14.1694 39.733 9.80896 35.3726 9.80896 30Z" fill="#A259FF"/>
<path d="M9.80896 10.5339C9.80896 5.16129 14.1694 0.800903 19.542 0.800903H29.275V20.2669H19.542C14.1694 20.2669 9.80896 15.9065 9.80896 10.5339Z" fill="#F24E1E"/>
<path d="M29.275 0.800903H39.008C44.3807 0.800903 48.7411 5.16129 48.7411 10.5339C48.7411 15.9065 44.3807 20.2669 39.008 20.2669H29.275V0.800903Z" fill="#FF7262"/>
<path d="M48.7411 30C48.7411 35.3726 44.3807 39.733 39.008 39.733C33.6354 39.733 29.275 35.3726 29.275 30C29.275 24.6274 33.6354 20.267 39.008 20.267C44.3807 20.267 48.7411 24.6274 48.7411 30Z" fill="#1ABCFE"/>
</g>
<defs>
<clipPath id="clip0_69_227">
<rect width="58.3981" height="58.3981" fill="white" transform="translate(0 0.800903)"/>
</clipPath>
</defs>
</svg>
