<svg width="59" height="60" viewBox="0 0 59 60" fill="none" xmlns="http://www.w3.org/2000/svg">
<g clip-path="url(#clip0_69_236)">
<path d="M0.194336 21.9354C0.194336 14.5377 0.194336 10.8388 1.63404 8.01319C2.90044 5.52774 4.92117 3.50701 7.40662 2.24061C10.2322 0.800903 13.9311 0.800903 21.3289 0.800903H37.4579C44.8557 0.800903 48.5545 0.800903 51.3801 2.24061C53.8656 3.50701 55.8863 5.52774 57.1527 8.01319C58.5924 10.8388 58.5924 14.5377 58.5924 21.9354V38.0644C58.5924 45.4622 58.5924 49.1611 57.1527 51.9867C55.8863 54.4721 53.8656 56.4929 51.3801 57.7593C48.5545 59.199 44.8557 59.199 37.4579 59.199H21.3289C13.9311 59.199 10.2322 59.199 7.40662 57.7593C4.92117 56.4929 2.90044 54.4721 1.63404 51.9867C0.194336 49.1611 0.194336 45.4622 0.194336 38.0644V21.9354Z" fill="#001E36"/>
<path d="M30.8631 43.8071H15.428C15.1667 43.8071 15.0362 43.6598 15.0363 43.3651V17.8509C15.0074 17.6433 15.1865 17.4596 15.3889 17.4892H20.1683C20.3257 17.4665 20.4644 17.6116 20.4425 17.7706V38.7445H31.6859C31.9209 38.7445 32.0123 38.865 31.9601 39.1061L31.2549 43.4455C31.2488 43.664 31.0695 43.8049 30.8631 43.8071Z" fill="#31A8FF"/>
<path d="M34.7844 23.8096H39.0546C39.2901 23.8117 39.5015 23.9785 39.5639 24.2114C39.8768 24.9241 39.9153 25.7835 39.9165 26.5529C40.6488 25.6783 41.5318 24.9497 42.5215 24.4033C43.5831 23.7872 44.7865 23.475 46.0059 23.4992C46.2083 23.4695 46.3875 23.6533 46.3586 23.8608V28.7226C46.3586 28.9103 46.2275 29.0039 45.9669 29.0039C44.1594 28.8759 41.3454 29.3139 40.0321 30.7718V43.4131C40.0321 43.6542 39.9277 43.7748 39.7187 43.7747H35.1371C34.912 43.8079 34.7135 43.6001 34.7452 43.3729V29.6468C34.7452 27.8075 34.7841 25.9129 34.5102 24.0909C34.468 23.9233 34.6246 23.7673 34.7844 23.8096Z" fill="#31A8FF"/>
</g>
<defs>
<clipPath id="clip0_69_236">
<rect width="58.3981" height="58.3981" fill="white" transform="translate(0.194336 0.800903)"/>
</clipPath>
</defs>
</svg>
