<svg width="59" height="60" viewBox="0 0 59 60" fill="none" xmlns="http://www.w3.org/2000/svg">
<g clip-path="url(#clip0_69_242)">
<path d="M0.397949 21.9354C0.397949 14.5377 0.397949 10.8388 1.83765 8.01319C3.10405 5.52774 5.12479 3.50701 7.61024 2.24061C10.4358 0.800903 14.1347 0.800903 21.5325 0.800903H37.6615C45.0593 0.800903 48.7582 0.800903 51.5837 2.24061C54.0692 3.50701 56.0899 5.52774 57.3563 8.01319C58.796 10.8388 58.796 14.5377 58.796 21.9354V38.0644C58.796 45.4622 58.796 49.1611 57.3563 51.9867C56.0899 54.4721 54.0692 56.4929 51.5837 57.7593C48.7582 59.199 45.0593 59.199 37.6615 59.199H21.5325C14.1347 59.199 10.4358 59.199 7.61024 57.7593C5.12479 56.4929 3.10405 54.4721 1.83765 51.9867C0.397949 49.1611 0.397949 45.4622 0.397949 38.0644V21.9354Z" fill="#001E36"/>
<path d="M12.9119 43.5905V17.9103C12.9119 17.7356 12.9849 17.6358 13.1552 17.6358C15.6697 17.6358 18.1831 17.4861 20.6983 17.4861C24.7795 17.4861 29.1986 18.8816 30.7476 23.1512C31.1126 24.1994 31.3073 25.2725 31.3073 26.3955C31.3073 28.5418 30.8206 30.3137 29.8473 31.7113C27.1285 35.6152 22.4161 35.5546 18.192 35.5546V43.5656C18.2251 43.8027 18.0229 43.915 17.827 43.915H13.2039C13.0092 43.915 12.9119 43.8151 12.9119 43.5905ZM18.2164 22.4524V30.8378C19.8912 30.9605 21.6439 30.9738 23.2532 30.4385C25.0298 29.926 26.0028 28.3881 26.0028 26.5453C26.0522 24.975 25.1965 23.4683 23.7398 22.9016C22.15 22.2406 19.9326 22.201 18.2164 22.4524Z" fill="#31A8FF"/>
<path d="M46.4838 29.1811C45.7476 28.7931 44.9634 28.5092 44.1528 28.3373C43.1112 28.0922 39.0028 27.2338 39.0013 29.382C39.0378 30.5813 40.9415 31.1689 41.7827 31.5115C44.7356 32.5253 48.0773 34.3375 48.0116 37.9805C48.1019 42.5155 43.7079 44.3285 39.9415 44.3289C37.9806 44.3492 35.938 44.0455 34.1435 43.2038C33.9722 43.1131 33.8619 42.9192 33.8693 42.7216V38.3822C33.85 38.2083 34.0367 38.0562 34.1827 38.1814C35.9409 39.2447 38.025 39.7609 40.059 39.7885C40.9569 39.7885 42.7364 39.7015 42.723 38.3822C42.723 37.1162 40.5941 36.5341 39.7456 36.2125C38.5155 35.7734 37.3492 35.1652 36.2785 34.4044C34.7823 33.3372 33.8437 31.6261 33.8693 29.7436C33.8605 25.4735 37.9051 23.5568 41.5477 23.5559C43.2505 23.5418 45.0791 23.6679 46.6643 24.3595C46.8922 24.4266 46.9395 24.6667 46.9385 24.8818V28.94C46.953 29.1919 46.6732 29.2777 46.4838 29.1811Z" fill="#31A8FF"/>
</g>
<defs>
<clipPath id="clip0_69_242">
<rect width="58.3981" height="58.3981" fill="white" transform="translate(0.397949 0.800903)"/>
</clipPath>
</defs>
</svg>
