<svg width="56" height="56" viewBox="0 0 56 56" fill="none" xmlns="http://www.w3.org/2000/svg">
<path fill-rule="evenodd" clip-rule="evenodd" d="M18.9062 15.6083C17.1311 15.6083 15.8175 17.162 15.8763 18.847C15.9328 20.4658 15.8594 22.5624 15.3317 24.2722C14.802 25.9867 13.9068 27.0733 12.4443 27.2127V28.7872C13.9068 28.927 14.802 30.013 15.3316 31.7278C15.8594 33.4376 15.9327 35.5342 15.8763 37.153C15.8175 38.8377 17.131 40.3917 18.9065 40.3917H37.0959C38.8711 40.3917 40.1844 38.8379 40.1256 37.153C40.0691 35.5342 40.1425 33.4376 40.6703 31.7278C41.1999 30.013 42.0929 28.9266 43.5554 28.7872V27.2127C42.093 27.073 41.2 25.987 40.6703 24.2722C40.1424 22.5626 40.0691 20.4658 40.1256 18.847C40.1844 17.1623 38.8711 15.6083 37.0959 15.6083H18.906H18.9062ZM33.5366 30.8641C33.5366 33.1842 31.806 34.5913 28.934 34.5913H24.0451C23.9052 34.5913 23.7711 34.5358 23.6722 34.4369C23.5733 34.338 23.5178 34.2039 23.5178 34.064V21.936C23.5178 21.7961 23.5733 21.662 23.6722 21.5631C23.7711 21.4642 23.9052 21.4087 24.0451 21.4087H28.9062C31.301 21.4087 32.8726 22.7059 32.8726 24.6975C32.8726 26.0953 31.8153 27.3468 30.4684 27.566V27.6389C32.302 27.84 33.5366 29.11 33.5366 30.8641ZM28.4009 23.0802H25.6133V27.0177H27.9612C29.7762 27.0177 30.777 26.2869 30.777 24.9805C30.7768 23.7562 29.9164 23.0802 28.4009 23.0802ZM25.6133 28.58V32.9192H28.5035C30.3933 32.9192 31.3942 32.161 31.3942 30.7359C31.3942 29.3109 30.3652 28.5798 28.382 28.5798H25.6133V28.58Z" fill="#7952B3"/>
</svg>
