<svg width="56" height="56" viewBox="0 0 56 56" fill="none" xmlns="http://www.w3.org/2000/svg">
<path d="M41.7028 21.6541C41.7026 21.1362 41.5918 20.6785 41.3678 20.2858C41.1477 19.8994 40.8182 19.5756 40.3761 19.3196C36.7273 17.2157 33.0749 15.1182 29.4273 13.0121C28.4439 12.4444 27.4904 12.4652 26.5143 13.0411C25.062 13.8975 17.7906 18.0634 15.6238 19.3185C14.7315 19.8351 14.2973 20.6257 14.297 21.6532C14.2957 25.8843 14.297 30.1155 14.2957 34.3466C14.2957 34.8532 14.4019 35.3021 14.6161 35.6889C14.8362 36.0869 15.1704 36.4196 15.6226 36.6813C17.7895 37.9364 25.0619 42.102 26.5139 42.9587C27.4904 43.5349 28.4439 43.5555 29.4276 42.9877C33.0754 40.8815 36.7279 38.784 40.3773 36.68C40.8295 36.4184 41.1637 36.0855 41.3839 35.6879C41.5977 35.3009 41.7042 34.8521 41.7042 34.3454C41.7042 34.3454 41.7042 25.8854 41.7028 21.6541Z" fill="#A179DC"/>
<path d="M28.042 27.9586L14.6162 35.6889C14.8364 36.0869 15.1705 36.4195 15.6228 36.6813C17.7896 37.9363 25.062 42.1019 26.514 42.9587C27.4905 43.5349 28.444 43.5555 29.4277 42.9876C33.0755 40.8814 36.7281 38.7839 40.3774 36.68C40.8297 36.4183 41.1638 36.0855 41.384 35.6878L28.042 27.9586Z" fill="#280068"/>
<path d="M41.7029 21.6541C41.7027 21.1362 41.592 20.6785 41.3679 20.2858L28.042 27.9588L41.384 35.6879C41.5978 35.301 41.7041 34.8522 41.7043 34.3455C41.7043 34.3455 41.7043 25.8854 41.7029 21.6541Z" fill="#390091"/>
<path d="M35.9466 25.0688V26.5138H37.3916V25.0688H38.114V26.5138H39.559V27.2363H38.114V28.6811H39.559V29.4036H38.114V30.8485H37.3916V29.4036H35.9466V30.8485H35.2241V29.4036H33.7793V28.6811H35.2241V27.2363H33.7793V26.5138H35.2241V25.0688H35.9466ZM37.3916 27.2362H35.9466V28.6811H37.3916V27.2362Z" fill="#1E2235"/>
<path d="M28.0714 17.8121C31.8403 17.8121 35.1307 19.8589 36.8932 22.9013L36.876 22.872L32.4416 25.4252C31.5681 23.946 29.9666 22.9477 28.1292 22.9271L28.0713 22.9268C25.2697 22.9268 22.9983 25.1982 22.9983 27.9998C22.9974 28.8828 23.2281 29.7507 23.6674 30.5167C24.5418 32.0433 26.1857 33.0729 28.0714 33.0729C29.9688 33.0729 31.622 32.0302 32.4919 30.4873L32.4708 30.5243L36.8984 33.0893C35.1552 36.1059 31.9098 38.1464 28.1849 38.187L28.0714 38.1877C24.2907 38.1877 20.9909 36.1283 19.2328 33.0698C18.3746 31.5767 17.8835 29.8457 17.8835 27.9998C17.8835 22.3734 22.4447 17.812 28.0713 17.812L28.0714 17.8121Z" fill="#1E2235"/>
</svg>
