<svg width="56" height="56" viewBox="0 0 56 56" fill="none" xmlns="http://www.w3.org/2000/svg">
<path d="M43.2486 25.2651C43.1642 25.198 42.3766 24.6033 40.7154 24.6033C40.2768 24.6052 39.8391 24.6428 39.4066 24.7158C39.0851 22.5122 37.2632 21.4378 37.1815 21.3896L36.7354 21.1323L36.4421 21.5557C36.0747 22.1243 35.8065 22.7512 35.649 23.4097C35.3516 24.6676 35.5325 25.8491 36.1715 26.8592C35.3998 27.2892 34.162 27.395 33.9116 27.4044H13.4182C12.8829 27.4051 12.4486 27.8377 12.4456 28.3729C12.4217 30.1683 12.7259 31.9529 13.3432 33.6389C14.0491 35.4903 15.0994 36.854 16.4658 37.6886C17.997 38.6263 20.4846 39.1621 23.3045 39.1621C24.5784 39.1662 25.8499 39.0509 27.1023 38.8179C28.8433 38.4982 30.5186 37.8897 32.0589 37.0174C33.328 36.2825 34.4703 35.3475 35.4414 34.2484C37.065 32.4105 38.0323 30.3635 38.7516 28.5444H39.0383C40.8159 28.5444 41.9091 27.833 42.5119 27.2369C42.9125 26.8567 43.2252 26.3936 43.4282 25.8799L43.5554 25.5075L43.2486 25.2651Z" fill="#2496ED"/>
<path d="M15.3177 26.8043H18.0639C18.1963 26.8043 18.3036 26.6969 18.3036 26.5645V24.1183C18.3044 23.9859 18.1976 23.8779 18.0652 23.8772C18.0648 23.8772 18.0643 23.8772 18.0639 23.8772H15.3177C15.1852 23.8772 15.0779 23.9846 15.0779 24.117V24.1183V26.5644C15.0779 26.6969 15.1852 26.8043 15.3177 26.8043Z" fill="#2496ED"/>
<path d="M19.1023 26.8043H21.8484C21.9809 26.8043 22.0882 26.6969 22.0882 26.5645V24.1183C22.089 23.9859 21.9822 23.8779 21.8498 23.8772C21.8493 23.8772 21.8488 23.8772 21.8484 23.8772H19.1022C18.969 23.8772 18.8611 23.9851 18.8611 24.1183V26.5644C18.8619 26.6971 18.9696 26.8043 19.1023 26.8043Z" fill="#2496ED"/>
<path d="M22.9442 26.8043H25.6904C25.8228 26.8043 25.9301 26.6969 25.9301 26.5645V24.1183C25.9309 23.9859 25.8241 23.8779 25.6917 23.8772C25.6912 23.8772 25.6908 23.8772 25.6903 23.8772H22.9441C22.8117 23.8772 22.7043 23.9846 22.7043 24.117V24.1183V26.5644C22.7044 26.6969 22.8118 26.8043 22.9442 26.8043Z" fill="#2496ED"/>
<path d="M26.7405 26.8043H29.4867C29.6194 26.8043 29.7271 26.6972 29.7278 26.5645V24.1183C29.7278 23.9851 29.6199 23.8772 29.4867 23.8772H26.7405C26.6081 23.8772 26.5007 23.9846 26.5007 24.117V24.1183V26.5644C26.5007 26.6969 26.6081 26.8043 26.7405 26.8043Z" fill="#2496ED"/>
<path d="M19.1022 23.2852H21.8484C21.981 23.2844 22.0882 23.1767 22.0882 23.044V20.5979C22.0882 20.4655 21.9808 20.3582 21.8484 20.3582H19.1022C18.9696 20.3582 18.8618 20.4653 18.8611 20.5979V23.044C18.8618 23.1769 18.9693 23.2844 19.1022 23.2852Z" fill="#2496ED"/>
<path d="M22.9441 23.2852H25.6903C25.8229 23.2844 25.9301 23.1767 25.9301 23.044V20.5979C25.9301 20.4655 25.8227 20.3582 25.6903 20.3582H22.9441C22.8117 20.3582 22.7043 20.4655 22.7043 20.5979V23.044C22.7043 23.1767 22.8115 23.2844 22.9441 23.2852Z" fill="#2496ED"/>
<path d="M26.7405 23.2852H29.4867C29.6196 23.2844 29.7271 23.1769 29.7278 23.044V20.5979C29.7271 20.4653 29.6194 20.3582 29.4867 20.3582H26.7405C26.6081 20.3582 26.5007 20.4655 26.5007 20.5979V23.044C26.5007 23.1767 26.6079 23.2844 26.7405 23.2852Z" fill="#2496ED"/>
<path d="M26.7405 19.7647H29.4867C29.6194 19.7647 29.7271 19.6576 29.7278 19.5249V17.0774C29.7271 16.9448 29.6194 16.8376 29.4867 16.8376H26.7405C26.6081 16.8376 26.5007 16.945 26.5007 17.0774V19.5249C26.5007 19.6573 26.6081 19.7647 26.7405 19.7647Z" fill="#2496ED"/>
<path d="M30.5706 26.8043H33.3168C33.4495 26.8043 33.5572 26.6972 33.5579 26.5645V24.1183C33.5579 23.9851 33.45 23.8772 33.3168 23.8772H30.5706C30.4382 23.8772 30.3308 23.9846 30.3308 24.117V24.1183V26.5644C30.3308 26.6969 30.4382 26.8043 30.5706 26.8043Z" fill="#2496ED"/>
</svg>
