<svg width="56" height="56" viewBox="0 0 56 56" fill="none" xmlns="http://www.w3.org/2000/svg">
<path d="M23.7755 19.1314C19.7099 18.3909 16.4952 19.1661 15.2141 21.3849C14.2581 23.0406 14.531 25.2362 15.8764 27.5831C15.9037 27.6306 15.94 27.6723 15.9833 27.7058C16.0267 27.7393 16.0762 27.7639 16.1291 27.7783C16.1819 27.7926 16.2371 27.7964 16.2915 27.7894C16.3458 27.7824 16.3982 27.7648 16.4457 27.7375C16.5417 27.6825 16.6118 27.5916 16.6408 27.4848C16.6698 27.378 16.6551 27.2641 16.6002 27.1681C15.388 25.0543 15.1518 23.1595 15.9362 21.8018C17.0004 19.9586 19.8674 19.2671 23.6258 19.9518C23.6937 19.9652 23.764 19.9615 23.8301 19.941C23.8963 19.9205 23.9563 19.8839 24.0047 19.8344C24.0532 19.7849 24.0886 19.7241 24.1077 19.6576C24.1267 19.591 24.129 19.5207 24.1141 19.4531C24.0962 19.3718 24.0543 19.2977 23.9939 19.2403C23.9335 19.183 23.8573 19.1451 23.7751 19.1315L23.7755 19.1314ZM17.9906 30.4354C19.6344 32.242 21.7702 33.9365 24.206 35.3429C30.1033 38.7478 36.3817 39.6579 39.4758 37.5481C39.565 37.4849 39.6257 37.3892 39.645 37.2817C39.6644 37.1742 39.6407 37.0633 39.5792 36.9731C39.5177 36.8828 39.4232 36.8203 39.316 36.799C39.2089 36.7776 39.0976 36.7992 39.0062 36.8591C36.2369 38.7474 30.2729 37.8828 24.6229 34.6207C22.2598 33.2562 20.1918 31.6156 18.6075 29.8744C18.5524 29.8119 18.4799 29.7673 18.3992 29.7464C18.3186 29.7255 18.2335 29.7292 18.155 29.757C18.0897 29.7802 18.0312 29.8193 17.9848 29.8708C17.9385 29.9222 17.9056 29.9844 17.8893 30.0517C17.873 30.1191 17.8737 30.1894 17.8914 30.2564C17.9091 30.3234 17.9432 30.3849 17.9906 30.4354Z" fill="#2DD0ED"/>
<path d="M38.4891 29.9282C41.1511 26.7834 42.0807 23.6203 40.8023 21.4059C39.8616 19.7766 37.8726 18.9163 35.2297 18.882C35.1192 18.8806 35.0126 18.9231 34.9334 19.0002C34.8541 19.0774 34.8088 19.1828 34.8072 19.2933C34.806 19.3758 34.8293 19.4568 34.8742 19.526C34.9192 19.5952 34.9836 19.6495 35.0595 19.6819C35.1098 19.7036 35.1639 19.7151 35.2186 19.7159C37.5957 19.7466 39.3094 20.4879 40.0802 21.8229C41.1419 23.6622 40.3132 26.483 37.8527 29.3896C37.8161 29.4312 37.7881 29.4797 37.7704 29.5322C37.7528 29.5848 37.7458 29.6403 37.7498 29.6956C37.7539 29.7509 37.769 29.8048 37.7941 29.8541C37.8193 29.9035 37.8541 29.9474 37.8964 29.9832C37.9387 30.0189 37.9878 30.0458 38.0406 30.0624C38.0935 30.079 38.1491 30.0849 38.2043 30.0798C38.2594 30.0747 38.313 30.0586 38.3619 30.0326C38.4108 30.0066 38.454 29.9711 38.4891 29.9282ZM31.6477 19.2702C29.2406 19.786 26.6788 20.7943 24.2186 22.2147C18.1302 25.7297 14.1587 30.9125 14.7105 34.6709C14.7173 34.726 14.7351 34.7791 14.7628 34.8273C14.7905 34.8754 14.8275 34.9175 14.8717 34.9511C14.9159 34.9847 14.9664 35.0092 15.0201 35.0231C15.0739 35.0369 15.1299 35.0399 15.1848 35.0318C15.2397 35.0237 15.2925 35.0048 15.34 34.976C15.3875 34.9473 15.4288 34.9093 15.4614 34.8644C15.4941 34.8195 15.5174 34.7685 15.5301 34.7145C15.5427 34.6604 15.5445 34.6044 15.5352 34.5496C15.0457 31.2129 18.81 26.2999 24.6352 22.9368C27.0219 21.5588 29.5027 20.5828 31.8225 20.0853C31.9273 20.0589 32.0178 19.9929 32.0749 19.9012C32.132 19.8094 32.1513 19.699 32.1286 19.5934C32.1059 19.4877 32.0431 19.3949 31.9534 19.3346C31.8637 19.2743 31.7541 19.2512 31.6477 19.2702Z" fill="#2DD0ED"/>
<path d="M21.7845 37.2763C23.1769 41.1625 25.4536 43.5556 28.0142 43.5556C29.8814 43.5556 31.6091 42.2828 32.9564 40.0417C32.9866 39.9948 33.0071 39.9422 33.0166 39.8872C33.0262 39.8322 33.0246 39.7759 33.012 39.7215C32.9962 39.6534 32.9635 39.5903 32.9169 39.5381C32.8704 39.4859 32.8114 39.4463 32.7455 39.4229C32.6796 39.3995 32.6089 39.393 32.5399 39.4041C32.4708 39.4152 32.4057 39.4435 32.3504 39.4864C32.3063 39.5206 32.2695 39.5633 32.2423 39.612C31.0313 41.6261 29.5439 42.7221 28.0142 42.7221C25.8876 42.7221 23.8564 40.5875 22.5697 36.9951C22.5521 36.9425 22.5241 36.8939 22.4875 36.8522C22.4508 36.8105 22.4063 36.7765 22.3564 36.7522C22.3064 36.728 22.2522 36.714 22.1968 36.711C22.1414 36.7081 22.0859 36.7162 22.0337 36.735C21.9815 36.7537 21.9335 36.7827 21.8927 36.8202C21.8518 36.8577 21.8188 36.903 21.7956 36.9534C21.7724 37.0038 21.7595 37.0583 21.7576 37.1137C21.7558 37.1692 21.765 37.2245 21.7849 37.2763H21.7845ZM34.4985 36.5158C35.219 34.2138 35.6057 31.5573 35.6057 28.7892C35.6057 21.8827 33.1886 15.9287 29.7454 14.3998C29.6448 14.3575 29.5315 14.3563 29.4301 14.3965C29.3286 14.4367 29.2469 14.5152 29.2026 14.6149C29.1583 14.7147 29.1549 14.8279 29.1931 14.9302C29.2313 15.0324 29.3081 15.1156 29.407 15.1619C32.478 16.5256 34.7722 22.176 34.7722 28.7892C34.7722 31.4743 34.3972 34.047 33.7029 36.267C33.685 36.3196 33.6777 36.3753 33.6817 36.4308C33.6856 36.4863 33.7006 36.5404 33.7258 36.59C33.7637 36.6647 33.8233 36.7262 33.8967 36.7665C33.9701 36.8069 34.054 36.8242 34.1374 36.8162C34.2208 36.8082 34.2998 36.7753 34.3642 36.7217C34.4287 36.6681 34.4754 36.5964 34.4985 36.5158ZM42.3501 36.1077C42.3517 35.8446 42.3014 35.5838 42.2018 35.3402C42.1023 35.0967 41.9556 34.8752 41.7702 34.6886C41.5847 34.5019 41.3642 34.3538 41.1213 34.2527C40.8784 34.1517 40.6179 34.0996 40.3547 34.0996C40.0916 34.0997 39.8311 34.1517 39.5882 34.2528C39.3453 34.3539 39.1248 34.502 38.9393 34.6886C38.7539 34.8753 38.6072 35.0967 38.5077 35.3403C38.4082 35.5838 38.3578 35.8447 38.3595 36.1078C38.3629 36.6347 38.5746 37.139 38.9484 37.5104C39.3223 37.8818 39.8279 38.0903 40.3548 38.0903C40.8818 38.0903 41.3874 37.8818 41.7612 37.5104C42.135 37.1389 42.3467 36.6347 42.3501 36.1077ZM41.5162 36.1077C41.5161 36.4157 41.3937 36.7111 41.1759 36.9289C40.9581 37.1467 40.6628 37.2691 40.3547 37.2691C40.1251 37.2691 39.9005 37.201 39.7096 37.0734C39.5186 36.9458 39.3697 36.7644 39.2819 36.5522C39.194 36.34 39.171 36.1065 39.2158 35.8812C39.2606 35.6559 39.3712 35.449 39.5336 35.2866C39.696 35.1241 39.903 35.0135 40.1282 34.9687C40.3535 34.9239 40.587 34.9469 40.7992 35.0348C41.0114 35.1227 41.1928 35.2715 41.3204 35.4625C41.4481 35.6535 41.5162 35.878 41.5162 36.1077ZM15.645 38.103C15.907 38.103 16.1665 38.0515 16.4086 37.9512C16.6507 37.8509 16.8707 37.704 17.0559 37.5187C17.2412 37.3334 17.3882 37.1134 17.4885 36.8713C17.5887 36.6292 17.6403 36.3697 17.6403 36.1077C17.6403 35.8457 17.5887 35.5862 17.4884 35.3441C17.3882 35.102 17.2412 34.882 17.0559 34.6967C16.8706 34.5114 16.6506 34.3645 16.4085 34.2642C16.1664 34.1639 15.9069 34.1123 15.6449 34.1124C15.3829 34.1124 15.1234 34.164 14.8813 34.2642C14.6392 34.3645 14.4193 34.5115 14.234 34.6968C14.0487 34.8821 13.9018 35.102 13.8015 35.3441C13.7012 35.5862 13.6496 35.8457 13.6497 36.1077C13.6496 36.3697 13.7012 36.6292 13.8015 36.8713C13.9018 37.1134 14.0487 37.3334 14.234 37.5186C14.4193 37.7039 14.6393 37.8509 14.8814 37.9512C15.1235 38.0514 15.3829 38.103 15.645 38.103ZM15.645 37.2691C15.3369 37.2691 15.0414 37.1468 14.8235 36.9289C14.6057 36.711 14.4833 36.4156 14.4833 36.1075C14.4833 35.7994 14.6057 35.5039 14.8235 35.286C15.0414 35.0681 15.3369 34.9458 15.645 34.9458C15.9531 34.9458 16.2486 35.0681 16.4664 35.286C16.6843 35.5039 16.8067 35.7994 16.8067 36.1075C16.8067 36.4156 16.6843 36.711 16.4664 36.9289C16.2486 37.1468 15.9531 37.2691 15.645 37.2691Z" fill="#2DD0ED"/>
<path d="M28.0143 16.4351C28.4089 16.4351 28.7947 16.3181 29.1229 16.0988C29.451 15.8796 29.7067 15.5679 29.8577 15.2033C29.9832 14.9001 30.032 14.5707 29.9998 14.2442C29.9676 13.9177 29.8554 13.6041 29.6731 13.3313C29.4908 13.0585 29.2441 12.8349 28.9548 12.6802C28.6654 12.5255 28.3424 12.4445 28.0143 12.4445C27.6196 12.4444 27.2338 12.5614 26.9057 12.7806C26.5775 12.9998 26.3217 13.3115 26.1707 13.6761C26.0196 14.0407 25.9801 14.4419 26.0572 14.829C26.1342 15.216 26.3243 15.5716 26.6034 15.8506C26.7887 16.0359 27.0086 16.1829 27.2507 16.2831C27.4928 16.3834 27.7523 16.435 28.0143 16.435V16.4351ZM28.0143 15.6011C27.7846 15.6011 27.5601 15.533 27.3691 15.4054C27.1781 15.2778 27.0292 15.0964 26.9413 14.8842C26.8828 14.7433 26.8528 14.5923 26.8528 14.4397C26.8528 14.2872 26.8828 14.1362 26.9413 13.9953C26.9996 13.8543 27.0851 13.7263 27.193 13.6185C27.3008 13.5106 27.4289 13.4251 27.5698 13.3667C27.7285 13.301 27.8998 13.2713 28.0713 13.2797C28.2429 13.2882 28.4104 13.3345 28.5619 13.4155C28.7134 13.4965 28.845 13.61 28.9473 13.748C29.0496 13.8859 29.1201 14.0449 29.1536 14.2133C29.1871 14.3818 29.1828 14.5556 29.1411 14.7222C29.0994 14.8888 29.0212 15.0441 28.9122 15.1769C28.8033 15.3096 28.6662 15.4166 28.5109 15.49C28.3557 15.5635 28.1861 15.6015 28.0143 15.6015V15.6011ZM28.3191 30.2007C27.9448 30.2815 27.5537 30.2103 27.2318 30.0029C26.9918 29.8482 26.803 29.6257 26.6893 29.3637C26.5757 29.1016 26.5423 28.8118 26.5935 28.5308C26.6446 28.2498 26.7779 27.9903 26.9766 27.7851C27.1752 27.5798 27.4302 27.4381 27.7094 27.3779C28.0812 27.3036 28.4672 27.3785 28.7843 27.5863C29.1013 27.7942 29.3239 28.1184 29.404 28.4889C29.4839 28.8595 29.415 29.2466 29.212 29.5668C29.0091 29.887 28.6883 30.1145 28.3191 30.2003V30.2007Z" fill="#2DD0ED"/>
</svg>
