<svg width="56" height="56" viewBox="0 0 56 56" fill="none" xmlns="http://www.w3.org/2000/svg">
<path d="M28 12.8285C19.4099 12.8285 12.4443 19.7929 12.4443 28.3841C12.4443 35.2571 16.9015 41.088 23.0823 43.1449C23.8596 43.2888 24.1451 42.8074 24.1451 42.3965C24.1451 42.0257 24.1306 40.8002 24.124 39.5004C19.7963 40.4414 18.8831 37.665 18.8831 37.665C18.1755 35.867 17.156 35.389 17.156 35.389C15.7447 34.4235 17.2624 34.4432 17.2624 34.4432C18.8245 34.553 19.647 36.0463 19.647 36.0463C21.0344 38.4245 23.286 37.7369 24.1737 37.3395C24.3132 36.334 24.7164 35.6479 25.1613 35.2594C21.7062 34.866 18.074 33.5321 18.074 27.5717C18.074 25.8735 18.6817 24.4857 19.6769 23.3964C19.5153 23.0045 18.9829 21.4224 19.8275 19.2797C19.8275 19.2797 21.1338 18.8616 24.1064 20.8743C25.3472 20.5295 26.678 20.3567 28 20.3509C29.3219 20.3567 30.6537 20.5295 31.8969 20.8743C34.866 18.8616 36.1704 19.2797 36.1704 19.2797C37.0171 21.4224 36.4844 23.0045 36.3229 23.3964C37.3203 24.4857 37.9238 25.8733 37.9238 27.5717C37.9238 33.5463 34.2848 34.8619 30.821 35.247C31.3789 35.7297 31.876 36.6764 31.876 38.1276C31.876 40.209 31.858 41.8841 31.858 42.3965C31.858 42.8105 32.1379 43.2956 32.9266 43.1428C39.1039 41.0836 43.5554 35.2548 43.5554 28.3841C43.5554 19.7929 36.5908 12.8285 28 12.8285Z" fill="white"/>
<path d="M18.2706 34.9879C18.2365 35.0651 18.1147 35.0883 18.0041 35.0354C17.8912 34.9846 17.8278 34.8792 17.8644 34.8016C17.8979 34.7221 18.0197 34.6999 18.1323 34.7533C18.2454 34.8039 18.3098 34.9103 18.2706 34.9879V34.9879ZM19.0358 35.6706C18.9617 35.7394 18.8166 35.7075 18.7181 35.5988C18.6164 35.4903 18.5974 35.3454 18.6726 35.2755C18.7491 35.2068 18.8898 35.2389 18.9918 35.3474C19.0935 35.4571 19.1133 35.6012 19.0357 35.6707L19.0358 35.6706ZM19.5608 36.5441C19.4654 36.6104 19.3095 36.5483 19.2132 36.4099C19.1179 36.2717 19.1179 36.1058 19.2153 36.0393C19.3119 35.9728 19.4654 36.0326 19.563 36.1698C19.6582 36.3105 19.6582 36.4764 19.5607 36.5443L19.5608 36.5441ZM20.4485 37.5559C20.3632 37.6498 20.1817 37.6247 20.0487 37.4963C19.9128 37.3709 19.8748 37.1929 19.9603 37.0989C20.0466 37.0047 20.2292 37.0312 20.3632 37.1584C20.4982 37.2836 20.5395 37.4629 20.4486 37.5559H20.4485ZM21.5958 37.8975C21.5583 38.0192 21.3834 38.0746 21.2072 38.0229C21.0313 37.9696 20.9161 37.8268 20.9516 37.7037C20.9882 37.5811 21.1639 37.5234 21.3414 37.5788C21.5171 37.6319 21.6325 37.7735 21.5959 37.8975H21.5958ZM22.9016 38.0423C22.906 38.1706 22.7566 38.277 22.5716 38.2793C22.3856 38.2834 22.2352 38.1795 22.2332 38.0534C22.2332 37.9238 22.3792 37.8184 22.5652 37.8154C22.7501 37.8117 22.9016 37.9148 22.9016 38.0423V38.0423ZM24.1844 37.9931C24.2066 38.1183 24.078 38.2469 23.8944 38.2811C23.7138 38.314 23.5467 38.2368 23.5236 38.1127C23.5012 37.9843 23.6322 37.8559 23.8124 37.8226C23.9964 37.7906 24.1609 37.8659 24.1844 37.9931" fill="white"/>
</svg>
