<svg width="56" height="56" viewBox="0 0 56 56" fill="none" xmlns="http://www.w3.org/2000/svg">
<path d="M14.2666 33.6337C14.2965 33.7012 14.3302 33.7634 14.3665 33.8256C14.3833 33.8619 14.4066 33.8995 14.4274 33.9332C14.4611 34.0006 14.4974 34.0654 14.5324 34.1302L14.7359 34.4725C14.7735 34.536 14.8098 34.5982 14.8526 34.6604C14.9239 34.7823 15.0081 34.9015 15.082 35.0234C15.1157 35.0739 15.1468 35.1245 15.1844 35.1751C15.327 35.3967 15.4567 35.5808 15.5954 35.7597C15.6939 35.8932 15.7924 36.0241 15.8987 36.1551C15.9337 36.2043 15.9726 36.2536 16.0089 36.3028L16.2954 36.6503C16.3304 36.6904 16.3654 36.7371 16.403 36.7786C16.53 36.9316 16.6648 37.0793 16.7996 37.2297C16.7996 37.2323 16.8035 37.2349 16.8061 37.2388C16.9733 37.4488 17.1535 37.6355 17.3506 37.8014L17.3558 37.8066C17.4595 37.9129 17.5632 38.0179 17.6733 38.1216L17.8043 38.2473C17.9482 38.3821 18.0921 38.5156 18.2437 38.6453C18.2463 38.6453 18.2476 38.6479 18.2502 38.6492L18.3241 38.714C18.4563 38.8293 18.5898 38.9434 18.726 39.0497L18.888 39.1858C18.9982 39.274 19.1123 39.3569 19.225 39.4438L19.4013 39.5786C19.5219 39.6694 19.6502 39.7575 19.7734 39.8457C19.8187 39.8781 19.8641 39.9105 19.9108 39.9403L19.9484 39.9701L20.3126 40.2086L20.4682 40.3123C20.6588 40.4342 20.848 40.5483 21.0373 40.6623C21.0917 40.6896 21.1462 40.7194 21.1967 40.7505C21.3367 40.8308 21.4819 40.9125 21.6232 40.9864C21.701 41.0305 21.7814 41.0681 21.8617 41.1083C21.959 41.1627 22.0601 41.2159 22.1638 41.2703C22.1923 41.2794 22.2156 41.2884 22.239 41.3014L22.2441 41.2962C22.2869 41.3157 22.3271 41.3364 22.3686 41.3572C22.5241 41.4349 22.6862 41.5088 22.8547 41.5814C22.8858 41.5944 22.9195 41.6073 22.9532 41.6255C23.1399 41.7072 23.3266 41.7849 23.5197 41.8601C23.5638 41.8731 23.6105 41.8951 23.6558 41.912C23.8308 41.9781 24.011 42.0455 24.1899 42.109L24.2547 42.1323C24.4531 42.1998 24.6488 42.2646 24.851 42.3255C24.8977 42.3385 24.9456 42.3553 24.9949 42.3683C25.201 42.4305 25.4007 42.5044 25.6094 42.5433C38.9264 44.9583 42.7958 34.5762 42.7958 34.5762C39.5447 38.7892 33.7748 39.9001 28.3109 38.6634C28.1086 38.6168 27.9064 38.5519 27.7016 38.4923C27.4125 38.4105 27.1259 38.3201 26.8422 38.2214L26.9653 38.259L26.8849 38.2279C26.7086 38.1682 26.5388 38.1021 26.3664 38.036C26.3242 38.0181 26.2814 38.0017 26.2381 37.9867L26.2238 37.9829C26.0333 37.9064 25.8479 37.8286 25.6638 37.7469C25.6236 37.734 25.5899 37.7158 25.5497 37.7003C25.3317 37.6052 25.1156 37.5058 24.9016 37.4021L25.0805 37.4812C25.0338 37.4606 24.9879 37.4381 24.9431 37.4138C24.8212 37.3567 24.6994 37.2919 24.5801 37.231C24.4893 37.188 24.3998 37.1421 24.3118 37.0936L24.3377 37.1066C24.1912 37.0288 24.0447 36.9445 23.8969 36.8654C23.8529 36.8343 23.8023 36.8084 23.7517 36.7799C23.5321 36.6522 23.3151 36.52 23.101 36.3832L23.1827 36.4325C23.1278 36.3986 23.0742 36.3627 23.0219 36.3249L23.0297 36.3301C22.8904 36.2445 22.7538 36.1546 22.6201 36.0604C22.576 36.0319 22.5358 36.0008 22.4904 35.9697C22.3508 35.8744 22.2133 35.7758 22.0782 35.6741L22.1093 35.6962C22.0549 35.6521 21.9965 35.6106 21.9382 35.5678C21.8241 35.4784 21.7088 35.3928 21.5947 35.2995L21.4417 35.1776C21.2787 35.0479 21.1188 34.9144 20.9621 34.7771L20.9608 34.7758L20.511 34.3675L20.3813 34.2456C20.275 34.138 20.1662 34.0356 20.0573 33.9293L19.9315 33.7997C19.7973 33.6668 19.6663 33.5306 19.5387 33.3913L19.531 33.3823L19.5089 33.3641C19.3717 33.2134 19.2364 33.0608 19.1032 32.9065C19.0682 32.8663 19.0358 32.8236 18.9995 32.7808L18.7052 32.4243C18.5726 32.2577 18.4429 32.0887 18.3163 31.9174L18.2645 31.8448C15.2337 27.7278 14.137 22.046 16.5624 17.3845L14.4209 20.0925C11.6662 24.032 12.0072 29.155 14.1137 33.3382C14.1616 33.4406 14.2148 33.5365 14.2666 33.6337V33.6337Z" fill="#1266A9"/>
<path d="M23.5443 27.9584L23.53 27.9377L23.5183 27.9221L23.5443 27.9584Z" fill="black"/>
<path d="M24.9935 29.659L25.1102 29.7757C25.258 29.9183 25.4096 30.057 25.5639 30.1957L25.5834 30.2126C25.7389 30.35 25.9139 30.4939 26.0941 30.6339L26.1213 30.6546C26.1654 30.6844 26.203 30.7194 26.2458 30.7492C26.4272 30.8892 26.61 31.0228 26.8006 31.1563L26.82 31.168C26.9004 31.2263 26.986 31.2794 27.0767 31.3365C27.113 31.3598 27.1545 31.3909 27.1934 31.4142C27.3308 31.5024 27.4656 31.5841 27.6043 31.6683C27.6263 31.6774 27.6458 31.6891 27.6665 31.6981C27.7832 31.7694 27.9102 31.8381 28.0321 31.9004C28.0749 31.9263 28.1163 31.9457 28.1604 31.9704C28.2473 32.0131 28.3328 32.0585 28.4158 32.1026L28.4573 32.1207C28.6323 32.2063 28.8112 32.2867 28.9862 32.3657C29.0302 32.3826 29.0678 32.3969 29.1054 32.415C29.2493 32.4772 29.3958 32.5369 29.5397 32.5913C29.6045 32.6133 29.6654 32.6393 29.7264 32.6587C29.8586 32.708 29.9973 32.7533 30.1282 32.7987L30.3097 32.857C30.499 32.9154 30.6908 32.9919 30.8917 33.023C41.1754 34.7159 43.5554 26.8383 43.5554 26.8383C41.4126 29.9066 37.2657 31.3689 32.8466 30.2268C32.626 30.1712 32.4072 30.1085 32.1906 30.0389L32.2645 30.0596C32.2023 30.0428 32.1479 30.0233 32.0882 30.0052C31.9534 29.9585 31.8147 29.9131 31.6838 29.8652L31.4971 29.7952C31.3519 29.7368 31.2041 29.6824 31.0628 29.6202C31.0188 29.6007 30.9786 29.5877 30.9449 29.5683C30.7634 29.4866 30.5806 29.4063 30.403 29.3207L30.136 29.182L29.9817 29.1042C29.8625 29.042 29.7523 28.9772 29.6382 28.9111C29.6091 28.8974 29.581 28.8818 29.5539 28.8644L29.5578 28.8657C29.4204 28.7801 29.2778 28.6972 29.1456 28.6103C29.1015 28.5857 29.0613 28.5559 29.0199 28.53L28.7502 28.355C28.5636 28.2253 28.3808 28.0866 28.1954 27.9518C28.1539 27.9142 28.1137 27.8831 28.0736 27.8494C26.1304 26.3288 24.5982 24.2508 23.8709 21.898C23.1048 19.4519 23.2733 16.7089 24.5969 14.4832L22.97 16.775C20.9724 19.6282 21.0852 23.4419 22.6407 26.4598C22.9246 27.0172 23.2124 27.4877 23.53 27.9363C23.8256 28.3588 24.1522 28.854 24.5463 29.1937C24.6863 29.3531 24.8367 29.5048 24.9935 29.659V29.659Z" fill="#1266A9"/>
<path d="M15.6019 35.7674L15.5967 35.7597L15.5876 35.748L15.6019 35.7674ZM20.9919 34.803L21.0049 34.8121L21.0075 34.8159L20.9919 34.803Z" fill="black"/>
<path d="M30.1593 14.294C28.981 16.0142 28.8682 18.1505 29.6797 20.047C30.5417 22.0614 32.3034 23.6429 34.3568 24.3922C34.4411 24.4246 34.5227 24.4518 34.6096 24.483L34.7236 24.518C34.8429 24.5555 34.9635 24.5996 35.0866 24.6268C40.7657 25.717 42.3032 21.7257 42.7167 21.1385C41.3646 23.07 39.0974 23.5341 36.3155 22.8613C36.0736 22.8023 35.8355 22.7287 35.6025 22.6409L35.6453 22.6552C35.3554 22.5548 35.0715 22.438 34.7949 22.3052L34.8442 22.3272C34.3127 22.0679 33.8564 21.7879 33.4325 21.4664C30.9462 19.5868 29.4088 16.0077 31.0318 13.0923L30.1593 14.294Z" fill="#1266A9"/>
</svg>
