<svg width="56" height="56" viewBox="0 0 56 56" fill="none" xmlns="http://www.w3.org/2000/svg">
<path d="M41.1009 36.4763C39.4082 36.4335 38.0963 36.6053 36.996 37.0778C36.6786 37.2065 36.1707 37.2067 36.1283 37.6148C36.2976 37.7866 36.3188 38.0659 36.4669 38.3021C36.7211 38.7316 37.1652 39.3115 37.5672 39.6124C38.0115 39.956 38.456 40.2995 38.9214 40.6003C39.7467 41.1158 40.6778 41.4164 41.4818 41.932C41.9475 42.2325 42.4127 42.6194 42.8783 42.9415C43.111 43.1131 43.2591 43.3926 43.5554 43.4998V43.4355C43.4072 43.2421 43.3649 42.9629 43.2169 42.7481C43.0055 42.5333 42.7936 42.34 42.582 42.1252C41.9684 41.2877 41.2067 40.5573 40.3815 39.956C39.7045 39.4834 38.2231 38.8391 37.9482 38.0443C37.9482 38.0443 37.9269 38.0229 37.9058 38.0015C38.3713 37.9585 38.9214 37.7866 39.3659 37.6578C40.0853 37.4643 40.7412 37.5074 41.4818 37.3141C41.8203 37.2281 42.1589 37.1207 42.4974 37.0133V36.8201C42.1167 36.4335 41.8416 35.918 41.4395 35.5529C40.3604 34.6076 39.1753 33.6842 37.9482 32.911C37.2921 32.4813 36.4457 32.2021 35.7474 31.837C35.4937 31.708 35.0704 31.6437 34.9224 31.4289C34.5413 30.9564 34.3297 30.3336 34.0547 29.7751C33.4413 28.5937 32.8486 27.2836 32.3196 26.0379C31.9389 25.2002 31.7061 24.3624 31.2406 23.5893C29.0611 19.938 26.6912 17.7257 23.0519 15.5562C22.2689 15.1052 21.3379 14.9119 20.3434 14.6757C19.8146 14.6541 19.2854 14.6113 18.7565 14.5897C18.4179 14.4393 18.0793 14.0313 17.7831 13.838C16.5772 13.0647 13.4665 11.3895 12.5778 13.6018C12.0065 14.9978 13.4243 16.3724 13.9108 17.0814C14.2708 17.5753 14.7361 18.1337 14.99 18.6922C15.1382 19.0571 15.1804 19.444 15.3285 19.8305C15.6672 20.7753 15.9844 21.828 16.4289 22.7087C16.6617 23.1597 16.9155 23.6322 17.2118 24.0403C17.3811 24.2765 17.6772 24.384 17.7408 24.7705C17.4447 25.2002 17.4234 25.8446 17.254 26.3815C16.4923 28.8086 16.7887 31.8156 17.8677 33.5982C18.2062 34.135 19.0103 35.3167 20.0895 34.8655C21.0417 34.4789 20.8301 33.2547 21.105 32.1807C21.1687 31.9227 21.1264 31.7511 21.2532 31.5793V31.6224C21.5495 32.2236 21.8456 32.8037 22.1208 33.405C22.7768 34.4573 23.9193 35.5529 24.8714 36.2832C25.3794 36.6696 25.7814 37.3355 26.4163 37.5718V37.5073H26.3738C26.2468 37.3139 26.0564 37.2281 25.8872 37.0776C25.5064 36.6912 25.0831 36.2187 24.7869 35.789C23.8984 34.5861 23.1152 33.2545 22.417 31.8799C22.0786 31.2142 21.7822 30.4839 21.5072 29.8181C21.3801 29.5601 21.3801 29.1736 21.1686 29.0449C20.8512 29.5173 20.3857 29.9255 20.1529 30.5053C19.7511 31.4289 19.7087 32.5673 19.5605 33.7485C19.4759 33.7702 19.5181 33.7485 19.4758 33.7917C18.7988 33.6196 18.566 32.911 18.312 32.3095C17.6771 30.7846 17.5713 28.336 18.1216 26.5748C18.2698 26.1237 18.9046 24.7062 18.6507 24.2766C18.5237 23.8685 18.1004 23.6322 17.8677 23.3101C17.5927 22.902 17.2963 22.3867 17.106 21.9354C16.5981 20.7326 16.3442 19.4009 15.7941 18.1981C15.5401 17.6396 15.096 17.0599 14.7361 16.5443C14.3341 15.9645 13.8897 15.5562 13.5723 14.8689C13.4666 14.6328 13.3184 14.2461 13.4877 13.9883C13.53 13.8165 13.6145 13.7522 13.7839 13.7092C14.059 13.4728 14.842 13.7735 15.1169 13.9024C15.8999 14.2244 16.5558 14.5254 17.2118 14.9763C17.5079 15.1912 17.8254 15.5993 18.2062 15.7067H18.6506C19.3277 15.8569 20.0893 15.7497 20.7242 15.9429C21.8458 16.3079 22.8613 16.8449 23.7713 17.4249C26.5432 19.2076 28.8282 21.7421 30.373 24.7705C30.627 25.2644 30.7327 25.7157 30.9655 26.231C31.41 27.2836 31.9601 28.3575 32.4042 29.3885C32.8486 30.3978 33.2717 31.4289 33.9066 32.2667C34.224 32.7175 35.4935 32.9539 36.0649 33.1902C36.4881 33.3834 37.1441 33.5554 37.5249 33.7916C38.2443 34.2424 38.9637 34.7582 39.6409 35.252C39.9795 35.5098 41.0373 36.0468 41.1009 36.4763Z" fill="#14B8A6"/>
<path d="M19.518 17.8114C19.1584 17.8114 18.9046 17.8546 18.6506 17.9189V17.9619H18.693C18.8624 18.3056 19.1584 18.5419 19.3699 18.8425C19.5393 19.1861 19.6873 19.5299 19.8567 19.8736C19.8778 19.852 19.8989 19.8306 19.8989 19.8306C20.1953 19.6157 20.3433 19.2721 20.3433 18.7566C20.2164 18.6063 20.1952 18.456 20.0894 18.3056C19.9625 18.0907 19.6873 17.9834 19.518 17.8114Z" fill="#14B8A6"/>
</svg>
