<svg width="56" height="56" viewBox="0 0 56 56" fill="none" xmlns="http://www.w3.org/2000/svg">
<path d="M26.726 12.7762C27.4974 12.3347 28.5022 12.3327 29.2729 12.7762C33.1505 14.9673 37.0293 17.1549 40.9062 19.3472C41.6354 19.758 42.1231 20.5695 42.1157 21.4097V34.5918C42.1211 35.4668 41.5852 36.2977 40.8159 36.6991C36.951 38.8781 33.0882 41.0597 29.2241 43.2386C28.4367 43.6888 27.4118 43.6541 26.649 43.167C25.4903 42.4954 24.3296 41.827 23.1709 41.156C22.9341 41.0148 22.6672 40.9024 22.5 40.6729C22.6478 40.4736 22.912 40.4488 23.1268 40.3618C23.6104 40.208 24.0546 39.9612 24.499 39.7216C24.6113 39.6447 24.7485 39.6742 24.8562 39.743C25.847 40.3111 26.829 40.8957 27.8232 41.4583C28.0352 41.5808 28.25 41.4182 28.4313 41.3172C32.2238 39.1737 36.0211 37.0383 39.813 34.8941C39.9535 34.8265 40.0311 34.6774 40.0197 34.5235C40.0224 30.175 40.0204 25.8258 40.0211 21.4773C40.0371 21.3027 39.9361 21.1421 39.7782 21.0707C35.9268 18.9017 32.0773 16.7294 28.2266 14.5598C28.1599 14.514 28.0808 14.4894 27.9999 14.4893C27.9189 14.4891 27.8398 14.5135 27.773 14.5592C23.9222 16.7294 20.0735 18.9037 16.2227 21.0725C16.0654 21.1441 15.9598 21.302 15.9785 21.4773C15.9792 25.8258 15.9785 30.175 15.9785 34.5242C15.9718 34.5993 15.9883 34.6746 16.0258 34.74C16.0632 34.8055 16.1198 34.8579 16.1879 34.8902C17.2155 35.4729 18.2444 36.0515 19.2727 36.6322C19.852 36.944 20.5632 37.1293 21.2014 36.8904C21.7647 36.6884 22.1595 36.1136 22.1487 35.5156C22.154 31.1925 22.146 26.8688 22.1527 22.5463C22.1386 22.3544 22.3207 22.1959 22.5073 22.2139C23.001 22.2106 23.4954 22.2073 23.9891 22.2152C24.1952 22.2106 24.3371 22.4172 24.3116 22.6106C24.3096 26.9611 24.3169 31.3116 24.3083 35.6621C24.3096 36.8216 23.8332 38.0832 22.7608 38.6505C21.4396 39.3349 19.8065 39.1898 18.5013 38.5335C17.3713 37.9695 16.293 37.3039 15.1831 36.6997C14.4118 36.3005 13.8785 35.4662 13.8839 34.5919V21.4097C13.8758 20.5521 14.3829 19.7258 15.1349 19.3211C18.999 17.1403 22.8625 14.958 26.726 12.7762Z" fill="#8CC84B"/>
<path d="M30.097 21.9075C31.7823 21.799 33.5865 21.8432 35.1031 22.6735C36.2773 23.3097 36.9283 24.645 36.949 25.9495C36.9162 26.1254 36.7323 26.2225 36.5643 26.2104C36.0753 26.2097 35.5862 26.2171 35.0972 26.2071C34.8898 26.2151 34.7693 26.0238 34.7432 25.8404C34.6027 25.2163 34.2623 24.5981 33.6749 24.2971C32.773 23.8455 31.7274 23.8682 30.744 23.8777C30.0261 23.9158 29.2541 23.9779 28.6459 24.4001C28.179 24.7199 28.0372 25.3654 28.2038 25.8853C28.361 26.2586 28.7919 26.379 29.1444 26.4901C31.1755 27.0213 33.3277 26.9684 35.32 27.6675C36.1448 27.9525 36.9516 28.5065 37.234 29.3701C37.6033 30.5275 37.4414 31.911 36.6179 32.8402C35.9501 33.6049 34.9775 34.021 34.0074 34.2471C32.7169 34.5348 31.3776 34.5422 30.067 34.4144C28.8346 34.2739 27.5522 33.9501 26.6008 33.1105C25.7873 32.4041 25.39 31.3035 25.4294 30.2412C25.4388 30.0618 25.6175 29.9367 25.7893 29.9515C26.2817 29.9475 26.7741 29.9461 27.2666 29.9521C27.4632 29.9381 27.609 30.108 27.6191 30.2934C27.71 30.8881 27.9335 31.5122 28.452 31.8648C29.4528 32.5105 30.7085 32.4662 31.8545 32.4843C32.8038 32.4422 33.8695 32.4295 34.6443 31.802C35.053 31.4441 35.1741 30.8453 35.0637 30.3302C34.944 29.8953 34.489 29.6926 34.0983 29.5601C32.0934 28.9259 29.9171 29.156 27.9315 28.4388C27.1254 28.1539 26.3459 27.6153 26.0362 26.7871C25.6041 25.6151 25.8021 24.1653 26.7119 23.2675C27.599 22.3744 28.8795 22.0305 30.097 21.9074V21.9075Z" fill="#8CC84B"/>
</svg>
