<svg width="56" height="56" viewBox="0 0 56 56" fill="none" xmlns="http://www.w3.org/2000/svg">
<path fill-rule="evenodd" clip-rule="evenodd" d="M27.9999 35.8831C36.591 35.8831 43.5554 32.3536 43.5554 28C43.5554 23.6464 36.591 20.1168 27.9999 20.1168C19.409 20.1168 12.4443 23.6464 12.4443 28C12.4443 32.3536 19.409 35.8831 27.9999 35.8831Z" fill="#A5B4FC"/>
<path fill-rule="evenodd" clip-rule="evenodd" d="M31.1524 30.5479L31.924 26.5767C32.0982 25.6804 31.9534 25.0119 31.4938 24.5895C31.0486 24.1807 30.2928 23.9819 29.1834 23.9819H27.8471L28.2294 22.0143C28.2365 21.9777 28.2355 21.94 28.2263 21.9038C28.2172 21.8676 28.2001 21.8339 28.1764 21.8051C28.1527 21.7763 28.1229 21.7531 28.0892 21.7372C28.0554 21.7213 28.0186 21.713 27.9813 21.713H26.1369C26.0158 21.713 25.9118 21.799 25.8886 21.9179L25.0691 26.1338C24.9946 25.6594 24.811 25.2516 24.5172 24.9151C23.9762 24.2958 23.1205 23.9819 21.9737 23.9819H18.399C18.2779 23.9819 18.1739 24.0678 18.1507 24.1865L16.4922 32.7203C16.4778 32.7946 16.4971 32.871 16.5453 32.9293C16.5933 32.9878 16.6647 33.0215 16.7405 33.0215H18.5994C18.7205 33.0215 18.8245 32.9355 18.8476 32.8164L19.2489 30.7524H20.6325C21.3586 30.7524 21.9688 30.6738 22.4451 30.5188C22.9321 30.3604 23.3803 30.0918 23.7753 29.722C24.0945 29.4287 24.3582 29.1003 24.5612 28.7461L24.23 30.4511C24.2155 30.5254 24.2349 30.6021 24.283 30.66C24.331 30.7185 24.4026 30.7522 24.4783 30.7522H26.3226C26.4437 30.7522 26.5477 30.6662 26.5709 30.5476L27.4811 25.8633H28.7466C29.2859 25.8633 29.4439 25.9707 29.487 26.0168C29.5259 26.0589 29.6068 26.2073 29.516 26.6751L28.7824 30.4509C28.7753 30.4875 28.7765 30.5252 28.7857 30.5613C28.7949 30.5974 28.812 30.6311 28.8357 30.6598C28.8594 30.6886 28.8892 30.7118 28.9229 30.7277C28.9566 30.7436 28.9934 30.7519 29.0307 30.752H30.9043C30.963 30.7521 31.0198 30.7318 31.0651 30.6946C31.1104 30.6573 31.1413 30.6055 31.1524 30.5479ZM22.6018 27.2667C22.4859 27.862 22.2677 28.2866 21.9528 28.5287C21.633 28.7753 21.1216 28.9002 20.4326 28.9002H19.6087L20.2044 25.8345H21.2696C22.0521 25.8345 22.3674 26.0017 22.494 26.1418C22.6695 26.3363 22.7067 26.7255 22.6018 27.2667ZM38.9212 24.9151C38.3804 24.2958 37.5247 23.9819 36.3779 23.9819H32.8032C32.6819 23.9819 32.5781 24.0678 32.5549 24.1865L30.8966 32.7203C30.882 32.7946 30.9013 32.871 30.9495 32.9293C30.9976 32.9876 31.0693 33.0215 31.1445 33.0215H33.0035C33.1249 33.0215 33.2287 32.9355 33.2518 32.8164L33.6531 30.7524H35.0369C35.7632 30.7524 36.3728 30.6738 36.8493 30.5188C37.3364 30.3604 37.7847 30.0918 38.1795 29.722C38.5091 29.4193 38.7801 29.079 38.9855 28.7117C39.1909 28.3443 39.3382 27.9346 39.4242 27.4937C39.6354 26.4063 39.4663 25.5388 38.9212 24.9151ZM37.1115 27.2667C36.9954 27.862 36.7772 28.2866 36.4627 28.5287C36.1428 28.7753 35.6313 28.9002 34.9425 28.9002H34.1184L34.7139 25.8345H35.7793C36.5618 25.8345 36.8771 26.0017 37.0039 26.1418C37.179 26.3363 37.2164 26.7255 37.1115 27.2667Z" fill="#1E2235"/>
<path fill-rule="evenodd" clip-rule="evenodd" d="M21.2168 25.5815C21.9229 25.5815 22.3937 25.7119 22.6291 25.9726C22.8642 26.2333 22.9202 26.681 22.7972 27.3151C22.6686 27.9755 22.421 28.4469 22.0542 28.7294C21.6874 29.0119 21.1291 29.153 20.3797 29.153H19.2489L19.943 25.5815H21.2168ZM16.6875 32.7685H18.5463L18.9874 30.4998H20.5797C21.2822 30.4998 21.8603 30.4259 22.314 30.2782C22.7677 30.1306 23.1802 29.8832 23.5513 29.5358C23.8628 29.2497 24.1149 28.9337 24.3079 28.5883C24.5007 28.243 24.6376 27.8621 24.7187 27.4454C24.9154 26.4338 24.767 25.6459 24.2738 25.0816C23.7808 24.5171 22.9962 24.2349 21.9209 24.2349H18.3462L16.6875 32.7685ZM26.0839 21.9661H27.9282L27.4873 24.2349H29.1306C30.164 24.2349 30.8775 24.4151 31.2699 24.7757C31.6622 25.1363 31.7798 25.7207 31.6229 26.5286L30.8513 30.4998H28.9777L29.7113 26.7239C29.7946 26.2943 29.7641 26.0014 29.6191 25.8451C29.4741 25.689 29.1654 25.6107 28.6936 25.6107H27.2197L26.2696 30.4998H24.4252L26.0839 21.9661ZM35.7265 25.5815C36.4327 25.5815 36.9033 25.7119 37.1388 25.9726C37.3739 26.2333 37.4298 26.681 37.3068 27.3151C37.1785 27.9755 36.931 28.4469 36.564 28.7294C36.1974 29.0119 35.6389 29.153 34.8899 29.153H33.759L34.4529 25.5815H35.7265ZM31.1969 32.7685H33.0559L33.4968 30.4998H35.0891C35.7918 30.4998 36.3699 30.4259 36.8236 30.2782C37.2773 30.1306 37.6898 29.8832 38.0609 29.5358C38.3724 29.2497 38.6244 28.9337 38.8172 28.5883C39.01 28.243 39.1472 27.8621 39.2284 27.4454C39.425 26.4338 39.2766 25.6459 38.7836 25.0816C38.2902 24.5171 37.5058 24.2349 36.4304 24.2349H32.8557L31.1969 32.7685Z" fill="white"/>
</svg>
