<svg width="56" height="56" viewBox="0 0 56 56" fill="none" xmlns="http://www.w3.org/2000/svg">
<path d="M43.1704 17.0491L28.8229 43.1494C28.5267 43.6883 27.7656 43.6914 27.465 43.1552L12.8331 17.0516C12.5055 16.4673 12.9967 15.7594 13.6476 15.8779L28.0104 18.4895C28.1021 18.5061 28.1959 18.506 28.2875 18.489L42.3499 15.8815C42.9987 15.7612 43.4921 16.4636 43.1704 17.0491V17.0491Z" fill="url(#paint0_linear_70_5554)"/>
<path d="M34.852 12.452L24.2346 14.5685C24.1498 14.5854 24.0729 14.6306 24.016 14.6968C23.9591 14.763 23.9255 14.8466 23.9204 14.9344L23.2673 26.1562C23.2637 26.2178 23.2743 26.2793 23.2981 26.336C23.322 26.3927 23.3585 26.4429 23.4048 26.4827C23.4511 26.5225 23.5059 26.5508 23.5648 26.5653C23.6237 26.5798 23.6851 26.5801 23.7442 26.5663L26.7002 25.8722C26.9768 25.8073 27.2267 26.0551 27.1698 26.3381L26.2916 30.7133C26.2326 31.0077 26.5042 31.2595 26.7869 31.1721L28.6127 30.6078C28.8957 30.5204 29.1678 30.7729 29.1079 31.0676L27.7122 37.94C27.6249 38.3699 28.1869 38.6043 28.4213 38.2358L28.5779 37.9896L37.2296 20.4242C37.3746 20.1301 37.1246 19.7947 36.8073 19.8571L33.7643 20.4545C33.4785 20.5106 33.2352 20.2397 33.3158 19.9552L35.3018 12.9512C35.3826 12.666 35.1384 12.3949 34.8522 12.452H34.852Z" fill="url(#paint1_linear_70_5554)"/>
<defs>
<linearGradient id="paint0_linear_70_5554" x1="12.4759" y1="17.9836" x2="28.296" y2="39.1027" gradientUnits="userSpaceOnUse">
<stop stop-color="#41D1FF"/>
<stop offset="1" stop-color="#BD34FE"/>
</linearGradient>
<linearGradient id="paint1_linear_70_5554" x1="29.3415" y1="13.0267" x2="32.6336" y2="35.2252" gradientUnits="userSpaceOnUse">
<stop stop-color="#FFEA83"/>
<stop offset="0.083" stop-color="#FFDD35"/>
<stop offset="1" stop-color="#FFA800"/>
</linearGradient>
</defs>
</svg>
